<svg width="80" height="80" viewBox="0 0 80 80" fill="none" xmlns="http://www.w3.org/2000/svg">
<rect width="100%" height="100%" fill="#455946"/>
<path d="M44.3891 11.4214C45.4079 10.8633 47.0597 10.8633 48.0786 11.4214L78.5242 28.101C79.2343 28.4901 79.2343 29.4627 78.5242 29.8517L54.6718 42.9192C53.9617 43.3082 53.9617 44.2808 54.6718 44.6698L70.9496 53.5876C71.9684 54.1458 71.9684 55.0507 70.9496 55.6089L55.47 64.0893C54.4512 64.6475 52.7994 64.6475 51.7805 64.0893L19.8999 46.6235C18.881 46.0654 18.881 45.1604 19.8999 44.6023L35.3794 36.1218C35.4201 36.0995 35.4619 36.0781 35.5045 36.0575L43.5092 31.6722C44.2192 31.2832 44.2192 30.3106 43.5092 29.9216L28.6625 21.7878C27.9524 21.3988 27.9524 20.4262 28.6625 20.0372L44.3891 11.4214Z" fill="#E6DB3D"/>
<path d="M14.4669 1.25061C12.6613 0.307645 10.6377 2.10545 11.5102 3.87739L25.9267 33.153C26.4446 34.2047 25.9248 35.4533 24.7894 35.8852L2.2942 44.4416C0.586955 45.091 0.491179 47.3504 2.13794 48.1278L68.1772 79.3038C70.0488 80.1874 72.002 78.2505 70.9895 76.515L63.9015 64.3641C63.3244 63.375 62.0047 63.0273 60.9729 63.5925L54.661 67.0505C54.0019 67.4115 53.19 67.4115 52.531 67.0505L16.5959 47.3635C15.1758 46.5855 15.1758 44.6403 16.5959 43.8622L32.5675 35.1122H32.5715L32.5756 35.1122L37.2569 32.5476C38.677 31.7696 38.677 29.8244 37.2569 29.0463L25.6057 22.6632C24.1855 21.8852 24.1855 19.94 25.6057 19.162L33.6357 14.7627C35.0727 13.9755 35.0514 12.0003 33.5977 11.2411L14.4669 1.25061Z" fill="#F5F9F0"/>
</svg>
