<svg width="32" height="32" viewBox="0 0 32 32" fill="none" xmlns="http://www.w3.org/2000/svg">
<rect width="32" height="32" fill="#455946"/>
<path d="M18.0357 6.37137C18.2368 6.25528 18.4846 6.25528 18.6857 6.37137L28.0509 11.7779C28.2676 11.903 28.2676 12.2158 28.0509 12.3409L20.9026 16.4676C20.6859 16.5927 20.6859 16.9054 20.9026 17.0305L25.8502 19.8867C26.0669 20.0118 26.0669 20.3246 25.8502 20.4497L20.9056 23.3042C20.7045 23.4203 20.4567 23.4203 20.2556 23.3042L10.3852 17.606C10.1685 17.4809 10.1685 17.1681 10.3852 17.0431L15.6532 14.0019C15.6538 14.0015 15.6546 14.0013 15.6554 14.0013C15.6561 14.0013 15.6569 14.0011 15.6576 14.0007L17.5347 12.917C17.7514 12.7919 17.7514 12.4792 17.5347 12.3541L13.0911 9.78882C12.8744 9.66373 12.8744 9.35098 13.0911 9.22589L18.0357 6.37137Z" fill="#E6DB3D"/>
<path d="M7.18141 3.04382C6.9079 2.88864 6.59541 3.17364 6.72482 3.46024L11.1427 13.3138C11.2195 13.4839 11.1376 13.6836 10.9635 13.7508L3.53348 17.3926C3.27144 17.4937 3.25235 17.8571 3.50235 17.9851L24.9177 28.9486C25.2029 29.0946 25.505 28.7835 25.3506 28.5027L22.6022 23.5047C22.5144 23.3451 22.3126 23.2888 22.1549 23.3798L20.7343 24.2C20.6337 24.258 20.5099 24.258 20.4093 24.2L8.98723 17.606C8.77055 17.4809 8.77055 17.1682 8.98723 17.0431L14.2562 14.0013H14.2574H14.2586L16.1367 12.9171C16.3534 12.792 16.3534 12.4792 16.1367 12.3541L11.6931 9.78886C11.4765 9.66377 11.4765 9.35103 11.6931 9.22594L14.3658 7.68301C14.5834 7.55738 14.5822 7.24288 14.3637 7.11888L7.18141 3.04382Z" fill="#F5F9F0"/>
</svg>
