<svg width="120" height="24" viewBox="0 0 404 80" fill="none" xmlns="http://www.w3.org/2000/svg">
<path d="M44.3894 11.4214C45.4083 10.8633 47.0601 10.8633 48.0789 11.4214L78.5246 28.101C79.2346 28.4901 79.2346 29.4627 78.5246 29.8517L54.6722 42.9192C53.9621 43.3082 53.9621 44.2808 54.6722 44.6698L70.9499 53.5876C71.9688 54.1458 71.9688 55.0507 70.9499 55.6089L55.4704 64.0893C54.4516 64.6475 52.7997 64.6475 51.7809 64.0893L19.9002 46.6235C18.8814 46.0654 18.8814 45.1604 19.9002 44.6023L35.3798 36.1218C35.4205 36.0995 35.4622 36.0781 35.5049 36.0575L43.5095 31.6722C44.2196 31.2832 44.2196 30.3106 43.5095 29.9216L28.6629 21.7878C27.9528 21.3988 27.9528 20.4262 28.6629 20.0372L44.3894 11.4214Z" fill="#101509"/>
<path d="M14.4671 1.25061C12.6614 0.307645 10.6378 2.10545 11.5104 3.87739L25.9268 33.153C26.4447 34.2047 25.9249 35.4533 24.7895 35.8852L2.29432 44.4416C0.587077 45.091 0.491301 47.3504 2.13807 48.1278L68.1773 79.3038C70.049 80.1874 72.0021 78.2505 70.9897 76.515L63.9016 64.3641C63.3246 63.375 62.0048 63.0273 60.973 63.5925L54.6611 67.0505C54.0021 67.4115 53.1902 67.4115 52.5311 67.0505L16.5961 47.3635C15.1759 46.5855 15.1759 44.6403 16.5961 43.8622L32.5676 35.1122H32.5717L32.5757 35.1122L37.257 32.5476C38.6771 31.7696 38.6771 29.8244 37.257 29.0463L25.6058 22.6632C24.1856 21.8852 24.1856 19.94 25.6058 19.162L33.6358 14.7627C35.0728 13.9755 35.0515 12.0003 33.5978 11.2411L14.4671 1.25061Z" fill="#101509"/>
<path d="M113.016 74V33.596L129.76 74H138.86L155.604 33.596V74H165.796V10.3H154.512L134.31 59.44L114.108 10.3H102.824V74H113.016Z" fill="#101509"/>
<path d="M195.854 74.546C209.322 74.546 219.15 64.536 219.15 51.25C219.15 37.964 209.322 27.954 195.854 27.954C182.386 27.954 172.558 37.964 172.558 51.25C172.558 64.536 182.386 74.546 195.854 74.546ZM195.854 64.9C188.028 64.9 182.75 59.167 182.75 51.25C182.75 43.333 188.028 37.6 195.854 37.6C203.68 37.6 208.958 43.333 208.958 51.25C208.958 59.167 203.68 64.9 195.854 64.9Z" fill="#101509"/>
<path d="M246.25 74.546C252.256 74.546 256.715 72.089 259.627 69.268V74H269.637V9.20801L259.627 10.3V33.232C256.806 30.138 251.892 27.954 246.25 27.954C232.691 27.954 223.682 37.054 223.682 51.25C223.682 65.446 232.691 74.546 246.25 74.546ZM246.705 64.9C238.788 64.9 233.51 59.076 233.51 51.25C233.51 43.424 238.788 37.6 246.705 37.6C254.622 37.6 259.809 43.424 259.809 51.25C259.809 59.076 254.622 64.9 246.705 64.9Z" fill="#101509"/>
<path d="M299.437 74.546C309.72 74.546 318.547 68.995 321.641 60.714H309.72C307.809 63.626 304.078 65.082 299.437 65.082C292.885 65.082 287.698 60.441 286.606 54.708H322.005C322.187 53.616 322.278 52.433 322.278 51.25C322.278 38.328 312.086 27.954 299.164 27.954C286.242 27.954 276.05 38.328 276.05 51.25C276.05 64.172 286.242 74.546 299.437 74.546ZM286.97 46.154C288.335 40.876 293.249 37.236 299.164 37.236C305.079 37.236 309.993 40.876 311.358 46.154H286.97Z" fill="#101509"/>
<path d="M338.648 74V9.20801L328.638 10.3V74H338.648Z" fill="#101509"/>
<path d="M394.291 74V64.354H357.254L390.196 18.854V10.3H348.245V19.946H377.638L344.696 65.446V74H394.291Z" fill="#101509"/>
</svg>
